Monsieur Hulot visits the technology-driven world of his sister, brother-in-law, and nephew, but he can't quite fit into the surroundings.


Director: Jacques Tati
Stars: Jean-Pierre Zola, Adrienne Servantie, Lucien Frégis

Format                                   : MPEG-4
Format profile                           : Base Media
Codec ID                                 : isom
File size                                : 1.09 GiB
Duration                                 : 1h 55mn
Overall bit rate mode                    : Variable
Overall bit rate                         : 1 348 Kbps
Movie name                               : Mon oncle*1958 /antusyrzhuk
Recorded date                            : 1958
Encoded date                             : UTC 2013-05-04 17:46:32
Tagged date                              : UTC 2013-05-04 17:46:32
Writing application                      : Yamb 2.0.0.8 [http://yamb.unite-video.com]

Video
ID                                       : 1
Format                                   : AVC
Format/Info                              : Advanced Video Codec
Format profile                           : Main@L3.1
Format settings, CABAC                   : Yes
Format settings, ReFrames                : 4 frames
Codec ID                                 : avc1
Codec ID/Info                            : Advanced Video Coding
Duration                                 : 1h 55mn
Bit rate                                 : 1 232 Kbps
Maximum bit rate                         : 3 512 Kbps
Width                                    : 720 pixels
Height                                   : 540 pixels
Display aspect ratio                     : 4:3
Frame rate mode                          : Constant
Frame rate                               : 23.976 fps
Color space                              : YUV
Chroma subsampling                       : 4:2:0
Bit depth                                : 8 bits
Scan type                                : Progressive
Bits/(Pixel*Frame)                       : 0.132
Stream size                              : 1 022 MiB (91%)
Writing library                          : x264 core 130 r2273 b3065e6
Encoding settings                        : cabac=1 / ref=4 / deblock=1:-3:-3 / analyse=0x1:0x131 / me=umh / subme=9 / psy=1 / psy_rd=1.00:0.15 / mixed_ref=1 / me_range=16 / chroma_me=1 / trellis=2 / 8x8dct=0 / cqm=0 / deadzone=21,11 / fast_pskip=1 / chroma_qp_offset=-3 / threads=3 / lookahead_threads=1 / sliced_threads=0 / nr=0 / decimate=1 / interlaced=0 / bluray_compat=0 / constrained_intra=0 / bframes=3 / b_pyramid=2 / b_adapt=2 / b_bias=0 / direct=3 / weightb=1 / open_gop=0 / weightp=2 / keyint=240 / keyint_min=23 / scenecut=30 / intra_refresh=0 / rc_lookahead=50 / rc=2pass / mbtree=1 / bitrate=1232 / ratetol=1.0 / qcomp=0.60 / qpmin=0 / qpmax=69 / qpstep=4 / cplxblur=20.0 / qblur=0.5 / ip_ratio=1.40 / aq=1:1.00
Encoded date                             : UTC 2013-05-04 17:46:32
Tagged date                              : UTC 2013-05-04 17:47:20

Audio
ID                                       : 2
Format                                   : AAC
Format/Info                              : Advanced Audio Codec
Format profile                           : LC
Codec ID                                 : 40
Duration                                 : 1h 55mn
Bit rate mode                            : Variable
Bit rate                                 : 112 Kbps
Maximum bit rate                         : 134 Kbps
Channel(s)                               : 2 channels
Channel positions                        : Front: L R
Sampling rate                            : 48.0 KHz
Compression mode                         : Lossy
Stream size                              : 92.8 MiB (8%)
Language                                 : French
Encoded date                             : UTC 2013-05-04 17:47:15
Tagged date                              : UTC 2013-05-04 17:47:20


+ Ukrainian subtitles

Screenshots:
 
http://imageshack.us/a/img836/5803/18308376.png 
http://imageshack.us/a/img708/1911/30843197.png 
http://imageshack.us/a/img853/1415/49319677.png 
http://imageshack.us/a/img17/8760/67284419.png 
http://imageshack.us/a/img826/9301/43272599.png 
http://imageshack.us/a/img191/3200/63668154.png

